<?xml version="1.0" encoding="UTF-8" standalone="no"?>
<!-- Created with Inkscape (http://www.inkscape.org/) -->

<svg
   xmlns:dc="http://purl.org/dc/elements/1.1/"
   xmlns:cc="http://creativecommons.org/ns#"
   xmlns:rdf="http://www.w3.org/1999/02/22-rdf-syntax-ns#"
   xmlns:svg="http://www.w3.org/2000/svg"
   xmlns="http://www.w3.org/2000/svg"
   xmlns:sodipodi="http://sodipodi.sourceforge.net/DTD/sodipodi-0.dtd"
   xmlns:inkscape="http://www.inkscape.org/namespaces/inkscape"
   width="33.086349"
   height="64.942589"
   viewBox="0 0 33.086349 64.942592"
   id="svg2"
   version="1.1"
   inkscape:version="0.91 r"
   sodipodi:docname="player.svg .svg"
   inkscape:export-filename="/home/maddoc/Desktop/heart.png"
   inkscape:export-xdpi="330.84305"
   inkscape:export-ydpi="330.84305">
  <defs
     id="defs4" />
  <sodipodi:namedview
     id="base"
     pagecolor="#ffffff"
     bordercolor="#666666"
     borderopacity="1.0"
     inkscape:pageopacity="0.0"
     inkscape:pageshadow="2"
     inkscape:zoom="5.656854"
     inkscape:cx="12.062961"
     inkscape:cy="37.134841"
     inkscape:document-units="px"
     inkscape:current-layer="layer1"
     showgrid="false"
     units="px"
     fit-margin-top="0"
     fit-margin-left="0"
     fit-margin-right="0"
     fit-margin-bottom="0"
     inkscape:window-width="1916"
     inkscape:window-height="1143"
     inkscape:window-x="0"
     inkscape:window-y="36"
     inkscape:window-maximized="0"
     showguides="false" />
  <metadata
     id="metadata7">
    <rdf:RDF>
      <cc:Work
         rdf:about="">
        <dc:format>image/svg+xml</dc:format>
        <dc:type
           rdf:resource="http://purl.org/dc/dcmitype/StillImage" />
        <dc:title></dc:title>
      </cc:Work>
    </rdf:RDF>
  </metadata>
  <g
     inkscape:label="Layer 1"
     inkscape:groupmode="layer"
     id="layer1"
     transform="translate(0.13680923,-1111.1928)">
    <g
       id="g5010"
       transform="matrix(0.32471296,0,0,0.32471296,22.250398,794.22901)">
      <path
         sodipodi:nodetypes="csscc"
         inkscape:connector-curvature="0"
         id="path5640"
         d="m -41.529385,1032.0769 c -3.825168,-8.5917 -14.189841,-16.1782 -18.949284,-13.0053 -3.707467,2.4718 -3.825163,11.6521 0.88273,15.8891 5.813681,5.2325 9.298099,5.7082 16.124546,4.5314 6.532208,-0.7653 1.942008,-7.4152 1.942008,-7.4152 z"
         style="fill:#c5986c;fill-opacity:1;fill-rule:evenodd;stroke:none;stroke-width:0.1;stroke-linecap:butt;stroke-linejoin:miter;stroke-miterlimit:4;stroke-dasharray:none;stroke-opacity:1" />
      <path
         style="fill:#c5986c;fill-opacity:1;fill-rule:evenodd;stroke:none;stroke-width:0.1;stroke-linecap:butt;stroke-linejoin:miter;stroke-miterlimit:4;stroke-dasharray:none;stroke-opacity:1"
         d="m 4.6435191,1032.0769 c 3.8251631,-8.5917 14.1898359,-16.1782 18.9492829,-13.0053 3.707468,2.4718 3.825159,11.6521 -0.88273,15.8891 -5.813682,5.2325 -9.298098,5.7082 -16.1245479,4.5314 -6.53220453,-0.7653 -1.942005,-7.4152 -1.942005,-7.4152 z"
         id="path5642"
         inkscape:connector-curvature="0"
         sodipodi:nodetypes="csscc" />
      <g
         style="stroke:#7a552f;stroke-opacity:1"
         transform="matrix(0.89562399,0,0,0.89562399,13.082896,129.04079)"
         id="g5789">
        <path
           style="fill:none;fill-rule:evenodd;stroke:#7a552f;stroke-width:5.5;stroke-linecap:round;stroke-linejoin:miter;stroke-miterlimit:4;stroke-dasharray:none;stroke-opacity:1"
           d="m -55.723908,1007.2279 c -0.625,-2.125 -15.875,-58.625 -15.875,-58.625"
           id="path5770"
           inkscape:connector-curvature="0" />
        <path
           style="fill:none;fill-rule:evenodd;stroke:#7a552f;stroke-width:5.5;stroke-linecap:round;stroke-linejoin:miter;stroke-miterlimit:4;stroke-dasharray:none;stroke-opacity:1"
           d="m -86.348908,963.1029 c 0,0 10.75,4.625 19.125,2.25 8.375,-2.375 15.875,-11.75 15.875,-11.75"
           id="path5772"
           inkscape:connector-curvature="0" />
        <path
           style="fill:none;fill-rule:evenodd;stroke:#7a552f;stroke-width:5.5;stroke-linecap:round;stroke-linejoin:miter;stroke-miterlimit:4;stroke-dasharray:none;stroke-opacity:1"
           d="m -88.800999,981.61863 c 0,0 14.806845,6.37032 26.34241,3.09904 11.535565,-3.27121 21.865922,-16.18416 21.865922,-16.18416"
           id="path5772-9"
           inkscape:connector-curvature="0" />
      </g>
      <g
         style="stroke:#7a552f;stroke-opacity:1"
         id="g5806"
         transform="matrix(-0.89562399,0,0,0.89562399,-49.077973,129.04076)">
        <path
           inkscape:connector-curvature="0"
           id="path5808"
           d="m -55.723908,1007.2279 c -0.625,-2.125 -15.875,-58.625 -15.875,-58.625"
           style="fill:none;fill-rule:evenodd;stroke:#7a552f;stroke-width:5.5;stroke-linecap:round;stroke-linejoin:miter;stroke-miterlimit:4;stroke-dasharray:none;stroke-opacity:1" />
        <path
           inkscape:connector-curvature="0"
           id="path5810"
           d="m -86.348908,963.1029 c 0,0 10.75,4.625 19.125,2.25 8.375,-2.375 15.875,-11.75 15.875,-11.75"
           style="fill:none;fill-rule:evenodd;stroke:#7a552f;stroke-width:5.5;stroke-linecap:round;stroke-linejoin:miter;stroke-miterlimit:4;stroke-dasharray:none;stroke-opacity:1" />
        <path
           inkscape:connector-curvature="0"
           id="path5812"
           d="m -88.800999,981.61863 c 0,0 14.806845,6.37032 26.34241,3.09904 11.535565,-3.27121 21.865922,-16.18416 21.865922,-16.18416"
           style="fill:none;fill-rule:evenodd;stroke:#7a552f;stroke-width:5.5;stroke-linecap:round;stroke-linejoin:miter;stroke-miterlimit:4;stroke-dasharray:none;stroke-opacity:1" />
      </g>
      <path
         sodipodi:nodetypes="ssscssscs"
         inkscape:connector-curvature="0"
         id="path5620"
         d="m 10.999242,1085.3944 c 4.186405,-7.1096 0.019,-22.7558 0.019,-26.2864 0,-3.5309 1.966481,-18.6944 -4.7165134,-28.8477 -5.2858948,-8.0307 -13.9483742,-11.7168 -24.6985736,-12.2588 -10.750199,0.542 -19.412676,4.2281 -24.698581,12.2588 -6.682994,10.1533 -4.716509,25.3168 -4.716509,28.8477 0,3.5306 -4.167522,19.1768 0.019,26.2864 3.112732,5.2862 17.527872,7.6271 29.396206,7.5239 11.8683347,0.1023 26.2834716,-2.2377 29.396204,-7.5239 z"
         style="fill:#c5986c;fill-opacity:1;fill-rule:evenodd;stroke:none;stroke-width:0.099;stroke-linecap:butt;stroke-linejoin:miter;stroke-miterlimit:4;stroke-dasharray:none;stroke-opacity:1" />
      <ellipse
         ry="6.9441481"
         rx="13.829444"
         cy="1073.5841"
         cx="-18.396967"
         id="path5648"
         style="opacity:1;fill:#a01309;fill-opacity:1;fill-rule:evenodd;stroke:none;stroke-width:0.099;stroke-linecap:square;stroke-linejoin:round;stroke-miterlimit:4;stroke-dasharray:none;stroke-dashoffset:0;stroke-opacity:1" />
      <ellipse
         ry="4.9102535"
         rx="2.4967391"
         cy="1048.5261"
         cx="-25.5368"
         id="path5650"
         style="opacity:1;fill:#000000;fill-opacity:1;fill-rule:evenodd;stroke:none;stroke-width:0.099;stroke-linecap:square;stroke-linejoin:round;stroke-miterlimit:4;stroke-dasharray:none;stroke-dashoffset:0;stroke-opacity:1" />
      <ellipse
         style="opacity:1;fill:#000000;fill-opacity:1;fill-rule:evenodd;stroke:none;stroke-width:0.099;stroke-linecap:square;stroke-linejoin:round;stroke-miterlimit:4;stroke-dasharray:none;stroke-dashoffset:0;stroke-opacity:1"
         id="ellipse5652"
         cx="-11.206811"
         cy="1048.5261"
         rx="2.4967391"
         ry="4.9102535" />
      <path
         sodipodi:nodetypes="cscscc"
         inkscape:connector-curvature="0"
         id="path5654"
         d="m -43.146358,1088.1429 c -4.827195,16.8757 -14.687803,41.2762 -9.028329,51.37 5.659471,10.0942 25.135118,10.6688 33.777725,10.5111 8.6426026,0.1595 28.1182523,-0.4169 33.777723,-10.5111 5.659474,-10.0938 -4.201137,-34.4943 -9.0283311,-51.37 z"
         style="fill:#c5986c;fill-opacity:1;fill-rule:evenodd;stroke:none;stroke-width:0.0973438;stroke-linecap:butt;stroke-linejoin:miter;stroke-miterlimit:4;stroke-dasharray:none;stroke-opacity:1" />
      <g
         transform="matrix(0.89562399,0,0,0.89562399,13.399548,129.51578)"
         id="g5669">
        <path
           style="fill:#c5986c;fill-opacity:1;fill-rule:evenodd;stroke:none;stroke-width:0.1;stroke-linecap:butt;stroke-linejoin:miter;stroke-miterlimit:4;stroke-dasharray:none;stroke-opacity:1"
           d="m -50.489724,1126.6088 c 0,0 4.042178,36.9371 1.208007,39.9107 -2.914076,3.0574 -16.042017,2.4852 -18.817035,-0.604 -2.462476,-2.7412 1.350128,-40.4443 1.350128,-40.4443 z"
           id="path5659"
           inkscape:connector-curvature="0"
           sodipodi:nodetypes="csscc" />
        <path
           inkscape:connector-curvature="0"
           style="fill:#7a552f;fill-opacity:1;fill-rule:evenodd;stroke:#7a552f;stroke-width:0.1;stroke-linecap:butt;stroke-linejoin:miter;stroke-miterlimit:4;stroke-dasharray:none;stroke-opacity:1"
           d="m -90.419922,171.47461 c 0.07447,2.70984 0.308495,4.64601 0.794922,5.1875 2.775018,3.0892 15.90233,3.66091 18.816406,0.60351 0.566093,-0.59394 0.85065,-2.57746 0.955078,-5.3164 -4.179034,2.01541 -16.245824,1.65445 -20.566406,-0.47461 z"
           transform="translate(21.526092,989.2529)"
           id="path5666" />
      </g>
      <g
         transform="matrix(-0.89562399,0,0,0.89562399,-50.369535,129.51578)"
         id="g5694">
        <path
           sodipodi:nodetypes="csscc"
           inkscape:connector-curvature="0"
           id="path5696"
           d="m -50.489724,1126.6088 c 0,0 4.042178,36.9371 1.208007,39.9107 -2.914076,3.0574 -16.042017,2.4852 -18.817035,-0.604 -2.462476,-2.7412 1.350128,-40.4443 1.350128,-40.4443 z"
           style="fill:#c5986c;fill-opacity:1;fill-rule:evenodd;stroke:none;stroke-width:0.1;stroke-linecap:butt;stroke-linejoin:miter;stroke-miterlimit:4;stroke-dasharray:none;stroke-opacity:1" />
        <path
           inkscape:connector-curvature="0"
           id="path5698"
           transform="translate(21.526092,989.2529)"
           d="m -90.419922,171.47461 c 0.07447,2.70984 0.308495,4.64601 0.794922,5.1875 2.775018,3.0892 15.90233,3.66091 18.816406,0.60351 0.566093,-0.59394 0.85065,-2.57746 0.955078,-5.3164 -4.179034,2.01541 -16.245824,1.65445 -20.566406,-0.47461 z"
           style="fill:#7a552f;fill-opacity:1;fill-rule:evenodd;stroke:#7a552f;stroke-width:0.1;stroke-linecap:butt;stroke-linejoin:miter;stroke-miterlimit:4;stroke-dasharray:none;stroke-opacity:1" />
      </g>
      <path
         sodipodi:nodetypes="czzcc"
         inkscape:connector-curvature="0"
         id="path5702"
         d="m -46.413827,1104.3434 c 0,0 -6.499465,49.226 -4.229968,51.7252 2.2695,2.4989 24.828238,2.9672 27.271327,0.5871 2.443088,-2.3802 -3.503591,-51.3705 -3.503591,-51.3705 z"
         style="fill:#ab47bc;fill-opacity:1;fill-rule:evenodd;stroke:none;stroke-width:0.1;stroke-linecap:butt;stroke-linejoin:miter;stroke-miterlimit:4;stroke-dasharray:none;stroke-opacity:1" />
      <path
         inkscape:connector-curvature="0"
         id="rect5737"
         d="m -49.554145,1131.0431 c -0.500322,4.8206 -0.948481,9.5721 -1.233231,13.6492 l 27.739851,0 c -0.242255,-4.1169 -0.632349,-8.8679 -1.075798,-13.6492 l -25.430822,0 z"
         style="opacity:1;fill:#6a1b9a;fill-opacity:1;fill-rule:evenodd;stroke:#6a1b9a;stroke-width:0.0447812;stroke-linecap:square;stroke-linejoin:round;stroke-miterlimit:4;stroke-dasharray:none;stroke-dashoffset:0;stroke-opacity:1" />
      <path
         inkscape:connector-curvature="0"
         id="rect5737-5"
         d="m -46.548908,1105.4106 c -0.139832,1.0672 -0.805516,6.177 -1.682793,13.648 l 22.906633,0 c -0.819603,-7.6719 -1.521058,-13.5114 -1.537603,-13.648 l -19.686237,0 z"
         style="opacity:1;fill:#6a1b9a;fill-opacity:1;fill-rule:evenodd;stroke:#6a1b9a;stroke-width:0.0447812;stroke-linecap:square;stroke-linejoin:round;stroke-miterlimit:4;stroke-dasharray:none;stroke-dashoffset:0;stroke-opacity:1" />
      <path
         sodipodi:nodetypes="zszzszz"
         inkscape:connector-curvature="0"
         id="path5700"
         d="m -54.88804,1107.992 c 1.530307,2.8374 23.671458,8.2935 36.265081,7.9403 12.5936231,-0.3529 34.350343,-4.6177 36.35422,-7.4694 2.00387,-2.8519 -4.432116,-18.7689 -7.179543,-20.4795 -2.7474281,-1.7106 -18.4952213,3.9731 -28.499501,4.444 -10.00428,0.4707 -25.248113,-6.0157 -28.583741,-4.797 -3.335629,1.2187 -9.886825,17.5242 -8.356516,20.3616 z"
         style="fill:#ab47bc;fill-opacity:1;fill-rule:evenodd;stroke:none;stroke-width:0.1;stroke-linecap:butt;stroke-linejoin:miter;stroke-miterlimit:4;stroke-dasharray:none;stroke-opacity:1" />
      <path
         sodipodi:nodetypes="ccccc"
         inkscape:connector-curvature="0"
         id="rect5704"
         d="m -39.362924,1088.5651 -6.33584,23.3774 c 3.252765,0.9084 7.067359,1.7735 10.98364,2.4683 l 3.979579,-23.6693 z"
         style="opacity:1;fill:#6a1b9a;fill-opacity:1;fill-rule:evenodd;stroke:#6a1b9a;stroke-width:0.0447812;stroke-linecap:square;stroke-linejoin:round;stroke-miterlimit:4;stroke-dasharray:none;stroke-dashoffset:0;stroke-opacity:1" />
      <path
         inkscape:connector-curvature="0"
         id="rect5704-3"
         d="m 2.5389828,1088.6075 c -2.61563527,0.5567 -5.6007408,1.2654 -8.6623608,1.938 l 3.680454,23.6713 c 3.9511693,-0.6434 7.8051693,-1.4119 11.0763505,-2.2217 l -6.0944437,-23.3876 z"
         style="opacity:1;fill:#6a1b9a;fill-opacity:1;fill-rule:evenodd;stroke:#6a1b9a;stroke-width:0.0447812;stroke-linecap:square;stroke-linejoin:round;stroke-miterlimit:4;stroke-dasharray:none;stroke-dashoffset:0;stroke-opacity:1" />
      <path
         inkscape:connector-curvature="0"
         id="path5758"
         d="m -13.814901,1092.008 c -1.445917,0.2091 -2.839262,0.3591 -4.133513,0.42 -1.50436,0.069 -3.134472,-0.029 -4.817477,-0.2229 l -1.827983,23.5308 c 2.124431,0.1653 4.152844,0.2478 5.970244,0.1955 1.645887,-0.046 3.453147,-0.1625 5.347504,-0.3305 l -0.538775,-23.5944 z"
         style="fill:#6a1b9a;fill-opacity:1;fill-rule:evenodd;stroke:#6a1b9a;stroke-width:0.0447812;stroke-linecap:butt;stroke-linejoin:miter;stroke-miterlimit:4;stroke-dasharray:none;stroke-opacity:1" />
    </g>
  </g>
</svg>
